<svg width="96" height="96" xmlns="http://www.w3.org/2000/svg" xmlns:xlink="http://www.w3.org/1999/xlink" xml:space="preserve" overflow="hidden"><defs><clipPath id="clip0"><rect x="401" y="264" width="96" height="96"/></clipPath></defs><g clip-path="url(#clip0)" transform="translate(-401 -264)"><path d="M434.266 310.707 448.973 325.414 463.68 310.707 464.68 309.707 463.266 308.293 462.266 309.293 449.99 321.569C449.986 321.573 449.98 321.573 449.976 321.569 449.974 321.567 449.973 321.565 449.973 321.562L449.973 282 447.973 282 447.973 321.562C447.973 321.568 447.968 321.572 447.963 321.572 447.96 321.572 447.958 321.571 447.956 321.569L435.68 309.293 434.68 308.293 433.266 309.707Z" stroke="#000000" stroke-width="1.33333"/><path d="M476 340 422 340 422 320 420 320 420 342 478 342 478 320 476 320 476 340Z" stroke="#000000" stroke-width="1.33333"/></g></svg>