<svg width="96" height="96" xmlns="http://www.w3.org/2000/svg" xmlns:xlink="http://www.w3.org/1999/xlink" xml:space="preserve" overflow="hidden"><defs><clipPath id="clip0"><rect x="682" y="204" width="96" height="96"/></clipPath></defs><g clip-path="url(#clip0)" transform="translate(-682 -204)"><path d="M755 229.776 755 220 743.493 220 730 208.7 716.507 220 705 220 705 229.776 692 240.529 692 294 768 294 768 240.529ZM755 232.376 765.516 241.076 755 251.586ZM730 211.305 740.378 220 719.622 220ZM707 222 753 222 753 253.586 740.948 265.638C734.619 260.314 725.377 260.314 719.048 265.638L707 253.586ZM705 232.372 705 251.586 694.484 241.07ZM694.017 243.431 717.586 267 694.017 290.569C694.013 290.573 694.007 290.573 694.003 290.569 694.001 290.567 694 290.565 694 290.562L694 243.438C694 243.432 694.005 243.428 694.01 243.428 694.013 243.428 694.015 243.429 694.017 243.431ZM695.438 292C695.432 292 695.428 291.995 695.428 291.99 695.428 291.987 695.429 291.985 695.431 291.983L719.394 268.021C725.255 262.172 734.745 262.172 740.606 268.021L764.569 291.983C764.573 291.987 764.573 291.993 764.569 291.997 764.567 291.999 764.565 292 764.562 292ZM765.983 290.569 742.414 267 765.983 243.431C765.987 243.427 765.993 243.427 765.997 243.431 765.999 243.433 766 243.435 766 243.438L766 290.562C766 290.568 765.995 290.572 765.99 290.572 765.987 290.572 765.985 290.571 765.983 290.569Z" stroke="#000000" stroke-width="1.33333"/><path d="M727.733 254.807C728.484 254.935 729.244 254.999 730.005 255 732.057 255.002 734.08 254.514 735.905 253.577 736.415 253.365 736.656 252.779 736.443 252.269 736.231 251.759 735.646 251.518 735.136 251.731 735.089 251.75 735.044 251.773 735 251.8 729.589 254.561 722.964 252.413 720.202 247.002 717.441 241.591 719.589 234.965 725 232.204 726.777 231.297 728.766 230.891 730.756 231.028 736.612 231.536 741.082 236.479 741 242.356L741 245C741 245.552 740.552 246 740 246L739.363 246C737.506 245.998 736.002 244.493 736 242.636L736 242C736.012 238.675 733.325 235.97 730 235.958 726.675 235.946 723.97 238.633 723.958 241.958 723.946 245.283 726.633 247.988 729.958 248 731.894 248.007 733.716 247.082 734.853 245.514 735.833 247.059 737.534 247.996 739.363 248L740 248C741.657 248 743 246.657 743 245L743 242.356C743.081 235.425 737.794 229.609 730.887 229.03 723.727 228.506 717.497 233.885 716.972 241.046 716.484 247.719 721.139 253.672 727.733 254.807ZM730 246C727.791 246 726 244.209 726 242 726 239.791 727.791 238 730 238 732.209 238 734 239.791 734 242 734 244.209 732.209 246 730 246Z" stroke="#000000" stroke-width="1.33333"/></g></svg>