<svg width="96" height="96" xmlns="http://www.w3.org/2000/svg" xmlns:xlink="http://www.w3.org/1999/xlink" xml:space="preserve" overflow="hidden"><defs><clipPath id="clip0"><rect x="592" y="312" width="96" height="96"/></clipPath></defs><g clip-path="url(#clip0)" transform="translate(-592 -312)"><path d="M665.981 322 609 322 609 397.961 665.981 397.961C668.747 397.964 670.992 395.727 671 392.961L671 327C670.992 324.234 668.747 321.997 665.981 322ZM611 324 618.261 324 618.261 395.961 611 395.961ZM669 392.963C668.993 394.625 667.643 395.967 665.981 395.963L620.261 395.963 620.261 324 665.981 324C667.643 323.996 668.993 325.339 669 327Z" stroke="#000000" stroke-width="1.33333"/><path d="M643.63 358.781C647.853 358.76 651.259 355.32 651.238 351.097 651.217 346.874 647.777 343.468 643.554 343.489 639.346 343.51 635.946 346.927 635.946 351.135 635.956 355.368 639.397 358.792 643.63 358.781ZM643.63 345.489C646.748 345.51 649.259 348.055 649.238 351.173 649.217 354.291 646.672 356.802 643.554 356.781 640.451 356.76 637.946 354.238 637.946 351.135 637.96 348.008 640.503 345.482 643.63 345.489Z" stroke="#000000" stroke-width="1.33333"/><path d="M657.463 365.268C655.233 363.57 652.685 362.336 649.969 361.64 647.915 361.01 645.779 360.686 643.63 360.68 638.663 360.779 633.841 362.378 629.8 365.268 628.852 366.003 628.287 367.127 628.263 368.326L628.263 375.972 659 375.972 659 368.326C658.977 367.126 658.412 366.002 657.463 365.268ZM657 373.972 630.261 373.972 630.261 368.326C630.288 367.75 630.562 367.214 631.014 366.856 633.081 365.388 635.379 364.277 637.814 363.57 639.705 363.016 641.661 362.717 643.631 362.68 645.597 362.688 647.552 362.986 649.431 363.564 651.895 364.186 654.208 365.3 656.231 366.839 656.696 367.195 656.978 367.741 657 368.326Z" stroke="#000000" stroke-width="1.33333"/></g></svg>